<svg version="1.1" id="Layer_1" xmlns="http://www.w3.org/2000/svg" xmlns:xlink="http://www.w3.org/1999/xlink" x="0px" y="0px"
	 width="100%" viewBox="171 136 673 673" enable-background="new 171 136 673 673" xml:space="preserve">
<defs>
  <linearGradient id="logo-gradient" x1="0%" y1="0%" x2="100%" y2="0%">
    <stop offset="0%" stop-color="#8a2be2" />
    <stop offset="100%" stop-color="#ff1493" />
  </linearGradient>
</defs>
<path fill="url(#logo-gradient)" opacity="1.000000" stroke="none" 
	d="
M525.142578,597.836426 
	C523.408325,613.167114 521.948608,628.078369 518.299622,642.652344 
	C517.003723,647.828125 515.493042,652.922668 512.955566,657.667908 
	C504.679840,673.143860 487.716309,673.708984 478.369385,658.778015 
	C472.772522,649.837524 470.563354,639.758301 468.693665,629.577209 
	C464.763428,608.175720 464.360565,586.550964 464.563171,564.881775 
	C464.675323,552.883545 464.652100,540.883789 464.655945,528.884766 
	C464.667297,493.561829 467.731079,458.283264 466.656891,422.959503 
	C465.478027,384.193146 463.362549,345.463562 458.555603,306.942200 
	C458.057159,302.947693 457.464752,298.800415 454.854126,294.812012 
	C451.679443,300.489441 451.326263,306.373291 450.567078,312.011475 
	C447.790283,332.633331 446.330627,353.373657 445.220795,374.158234 
	C443.539093,405.652863 445.307983,437.123138 445.182251,468.602325 
	C445.071075,496.420349 443.802307,524.200500 439.377319,551.718872 
	C437.471375,563.571716 434.558289,575.194153 428.663605,585.851135 
	C425.199768,592.113342 420.528137,597.224182 414.484497,601.018860 
	C403.490509,607.921875 391.352570,605.764038 383.418945,595.455200 
	C375.074615,584.612671 372.341888,571.740662 370.723633,558.604065 
	C366.876648,527.375366 368.993530,496.070282 369.746368,464.778137 
	C370.110657,449.636536 370.492798,434.443024 367.557587,419.459625 
	C366.912445,416.166351 367.100281,411.412140 363.146393,410.656219 
	C358.926880,409.849518 357.389709,414.450897 355.492828,417.427765 
	C345.076813,433.773895 340.385223,452.535614 333.319244,470.299225 
	C328.825714,481.595764 324.191101,492.782806 316.760620,502.651855 
	C300.907501,523.707764 276.481079,523.592712 258.663361,513.570374 
	C251.573349,509.582275 245.119812,504.476044 238.273605,500.037567 
	C230.202988,494.805298 225.332886,495.265015 218.088760,501.743713 
	C211.892242,507.285492 207.750397,514.295593 203.991318,521.591064 
	C201.144363,527.116333 197.238159,529.429016 192.568558,528.610596 
	C185.565735,527.383240 181.539322,520.365051 184.719040,513.782593 
	C190.724060,501.351471 198.497040,490.162262 210.094070,482.179016 
	C221.478546,474.342102 233.271820,473.754669 245.364044,480.585968 
	C249.724014,483.049011 253.850296,485.848175 257.841095,488.876221 
	C262.904999,492.718536 268.269623,496.029999 274.459534,497.843384 
	C284.984039,500.926544 294.053650,498.016235 300.478394,489.187592 
	C308.050598,478.782135 311.565887,466.502472 316.065521,454.698608 
	C322.054169,438.988464 327.146149,422.892761 336.041534,408.451874 
	C340.449585,401.295776 345.606445,394.738922 353.220947,390.716156 
	C362.575226,385.774261 371.971222,387.628540 378.847717,395.671417 
	C385.890900,403.909180 388.190796,413.996063 389.188080,424.354706 
	C391.815796,451.648193 389.345398,478.932648 388.722290,506.224731 
	C388.247070,527.039246 388.652924,547.844666 393.328064,568.290771 
	C394.028412,571.353638 395.119843,574.368042 396.387695,577.247559 
	C397.448853,579.657654 398.783356,582.346558 401.782410,582.655273 
	C405.069977,582.993652 406.789154,580.396301 408.321533,577.988770 
	C412.584045,571.291626 414.984131,563.852966 416.621124,556.161255 
	C421.561646,532.947083 422.594238,509.346161 423.788025,485.733368 
	C425.396088,453.926514 423.805756,422.105560 424.702118,390.304077 
	C425.569763,359.522369 426.640808,328.747131 432.695984,298.416077 
	C433.806580,292.853027 435.585541,287.471497 437.890381,282.283081 
	C439.741272,278.116577 442.257660,274.406342 445.945190,271.632233 
	C452.307617,266.845703 458.649170,267.108093 464.483002,272.537628 
	C472.797363,280.275818 475.342651,290.769745 477.143188,301.270355 
	C481.109741,324.403625 482.874207,347.782410 484.463135,371.200623 
	C487.298859,412.994293 486.467834,454.806763 485.871857,496.612549 
	C485.456177,525.769958 484.348480,554.924805 485.440277,584.076111 
	C486.093567,601.518738 486.816864,619.011902 491.234985,636.061951 
	C491.984161,638.953125 492.779816,641.822510 494.644104,644.836304 
	C498.418640,638.995667 499.266846,632.541199 500.455200,626.347534 
	C504.223541,606.707275 505.802338,586.817749 506.763947,566.852295 
	C508.673340,527.207397 507.042053,487.542023 507.739227,447.894135 
	C508.175354,423.092010 508.933929,398.261414 512.817627,373.723877 
	C515.045837,359.645752 517.275269,345.314362 526.427551,333.479706 
	C535.389526,321.891052 546.803467,322.082825 555.133179,334.177612 
	C561.751282,343.787170 563.709351,355.029999 565.202087,366.283264 
	C568.887756,394.067993 569.395142,422.049438 569.863586,450.015045 
	C570.226196,471.665131 569.663940,493.341705 570.473877,514.970520 
	C571.469788,541.565247 572.953613,568.183960 579.331238,594.204956 
	C580.143616,597.519470 580.841248,601.008850 583.939758,603.655884 
	C587.389709,601.205627 588.511536,597.510254 589.685547,593.968628 
	C594.625427,579.066711 596.899902,563.574036 599.705322,548.194824 
	C605.146484,518.366272 605.720154,487.942444 610.797363,458.082520 
	C612.471802,448.234802 614.746399,438.439453 621.122253,430.266022 
	C629.079407,420.065338 640.245850,420.276917 647.776611,430.824585 
	C655.069702,441.039154 656.608521,452.895538 657.234619,464.969025 
	C657.839966,476.642975 656.355652,488.265747 656.282471,499.924500 
	C656.271057,501.743652 656.280884,503.562958 656.280884,505.656403 
	C658.768127,505.587219 659.529419,503.780060 660.495422,502.413208 
	C666.360535,494.114136 672.135986,485.751709 678.004028,477.454742 
	C681.093811,473.086029 684.640564,469.079956 688.730774,465.634949 
	C699.832092,456.285095 711.895203,458.354218 719.497681,470.773529 
	C722.563538,475.781860 724.442444,481.314392 726.716614,486.677734 
	C729.834473,494.030609 733.149658,495.953674 740.778870,494.273651 
	C767.860474,488.309906 795.342041,488.567230 822.820740,488.832825 
	C829.524048,488.897583 834.306091,493.662415 834.221741,499.575958 
	C834.136902,505.521362 829.885315,509.284576 822.662720,509.227905 
	C802.327087,509.068481 782.015137,509.587646 761.763123,511.418457 
	C754.488403,512.076111 747.278870,513.476868 740.048096,514.593811 
	C727.835999,516.480225 718.030701,512.030151 711.536560,501.585449 
	C708.793945,497.174286 706.900146,492.372467 705.089783,487.531219 
	C704.398987,485.683960 704.054016,483.654205 702.456848,482.212280 
	C700.103516,481.867126 699.393616,483.877472 698.282532,485.186554 
	C691.998291,492.590698 687.612549,501.279938 682.116333,509.221619 
	C678.034302,515.119934 673.956116,521.000854 668.726196,525.975586 
	C666.051208,528.520020 663.147400,530.731079 659.762146,532.251282 
	C649.277771,536.959351 640.254089,532.827942 637.404541,521.702148 
	C634.976440,512.221924 635.667236,502.553833 636.227295,492.884766 
	C636.987671,479.757263 637.773376,466.602722 635.747498,453.497406 
	C635.570496,452.352539 635.559570,451.143066 633.878601,450.026978 
	C631.551697,454.394623 631.027832,459.222351 630.454712,463.784790 
	C628.174744,481.934296 626.520325,500.161987 624.274353,518.316223 
	C620.946716,545.214355 617.758057,572.160889 610.212769,598.313599 
	C608.120911,605.564209 604.794006,612.321777 599.722046,618.022217 
	C590.512695,628.372742 576.416687,627.989441 567.713074,617.171204 
	C562.583008,610.794739 560.018738,603.215454 558.019287,595.428955 
	C553.400879,577.443909 552.138489,559.003235 550.707520,540.591125 
	C547.552551,499.996674 549.602234,459.309570 548.500427,418.685822 
	C547.960205,398.764435 547.525635,378.730011 543.659973,359.036194 
	C543.122742,356.299011 542.649963,353.463867 540.065063,350.667328 
	C536.344238,356.288330 535.335571,362.482971 534.356201,368.526245 
	C529.496887,398.510437 528.547302,428.757751 527.718750,459.077393 
	C527.048767,483.595490 528.844177,508.036957 528.302368,532.520874 
	C527.823364,554.169250 526.810120,575.788635 525.142578,597.836426 
z"/>
</svg>